<svg width="136" height="24" viewBox="0 0 136 24" fill="none" xmlns="http://www.w3.org/2000/svg">
<path fill-rule="evenodd" clip-rule="evenodd" d="M11.9999 18.4553L7.31069 20.8706C6.74945 21.1596 6.05528 20.9482 5.76022 20.3984C5.64272 20.1794 5.60218 19.9287 5.64486 19.6848L6.54043 14.5693L2.74674 10.9464C2.29268 10.5128 2.28339 9.8007 2.72599 9.35587C2.90223 9.17873 3.13316 9.06346 3.38303 9.02788L8.62578 8.28154L10.9704 3.62725C11.251 3.07019 11.9395 2.84148 12.5081 3.1164C12.7345 3.22588 12.9177 3.40542 13.0295 3.62725L15.3741 8.28154L20.6169 9.02788C21.2444 9.11721 21.6791 9.68798 21.5879 10.3027C21.5516 10.5475 21.434 10.7738 21.2532 10.9464L17.4595 14.5693L18.355 19.6848C18.4622 20.2971 18.0425 20.8786 17.4175 20.9836C17.1687 21.0254 16.9127 20.9857 16.6892 20.8706L11.9999 18.4553Z" fill="#FFBD3D"/>
<path fill-rule="evenodd" clip-rule="evenodd" d="M39.9999 18.4553L35.3107 20.8706C34.7494 21.1596 34.0553 20.9482 33.7602 20.3984C33.6427 20.1794 33.6022 19.9287 33.6449 19.6848L34.5404 14.5693L30.7467 10.9464C30.2927 10.5128 30.2834 9.8007 30.726 9.35587C30.9022 9.17873 31.1332 9.06346 31.383 9.02788L36.6258 8.28154L38.9704 3.62725C39.251 3.07019 39.9395 2.84148 40.5081 3.1164C40.7345 3.22588 40.9177 3.40542 41.0295 3.62725L43.3741 8.28154L48.6169 9.02788C49.2444 9.11721 49.6791 9.68798 49.5879 10.3027C49.5516 10.5475 49.434 10.7738 49.2532 10.9464L45.4595 14.5693L46.355 19.6848C46.4622 20.2971 46.0425 20.8786 45.4175 20.9836C45.1687 21.0254 44.9127 20.9857 44.6892 20.8706L39.9999 18.4553Z" fill="#FFBD3D"/>
<path fill-rule="evenodd" clip-rule="evenodd" d="M67.9999 18.4553L63.3107 20.8706C62.7494 21.1596 62.0553 20.9482 61.7602 20.3984C61.6427 20.1794 61.6022 19.9287 61.6449 19.6848L62.5404 14.5693L58.7467 10.9464C58.2927 10.5128 58.2834 9.8007 58.726 9.35587C58.9022 9.17873 59.1332 9.06346 59.383 9.02788L64.6258 8.28154L66.9704 3.62725C67.251 3.07019 67.9395 2.84148 68.5081 3.1164C68.7345 3.22588 68.9177 3.40542 69.0295 3.62725L71.3741 8.28154L76.6169 9.02788C77.2444 9.11721 77.6791 9.68798 77.5879 10.3027C77.5516 10.5475 77.434 10.7738 77.2532 10.9464L73.4595 14.5693L74.355 19.6848C74.4622 20.2971 74.0425 20.8786 73.4175 20.9836C73.1687 21.0254 72.9127 20.9857 72.6892 20.8706L67.9999 18.4553Z" fill="#FFBD3D"/>
<path fill-rule="evenodd" clip-rule="evenodd" d="M95.9999 18.4553L91.3107 20.8706C90.7494 21.1596 90.0553 20.9482 89.7602 20.3984C89.6427 20.1794 89.6022 19.9287 89.6449 19.6848L90.5404 14.5693L86.7467 10.9464C86.2927 10.5128 86.2834 9.8007 86.726 9.35587C86.9022 9.17873 87.1332 9.06346 87.383 9.02788L92.6258 8.28154L94.9704 3.62725C95.251 3.07019 95.9395 2.84148 96.5081 3.1164C96.7345 3.22588 96.9177 3.40542 97.0295 3.62725L99.3741 8.28154L104.617 9.02788C105.244 9.11721 105.679 9.68798 105.588 10.3027C105.552 10.5475 105.434 10.7738 105.253 10.9464L101.459 14.5693L102.355 19.6848C102.462 20.2971 102.042 20.8786 101.418 20.9836C101.169 21.0254 100.913 20.9857 100.689 20.8706L95.9999 18.4553Z" fill="#FFBD3D"/>
<path fill-rule="evenodd" clip-rule="evenodd" d="M124 18.4553L119.311 20.8706C118.749 21.1596 118.055 20.9482 117.76 20.3984C117.643 20.1794 117.602 19.9287 117.645 19.6848L118.54 14.5693L114.747 10.9464C114.293 10.5128 114.283 9.8007 114.726 9.35587C114.902 9.17873 115.133 9.06346 115.383 9.02788L120.626 8.28154L122.97 3.62725C123.251 3.07019 123.939 2.84148 124.508 3.1164C124.734 3.22588 124.918 3.40542 125.029 3.62725L127.374 8.28154L132.617 9.02788C133.244 9.11721 133.679 9.68798 133.588 10.3027C133.552 10.5475 133.434 10.7738 133.253 10.9464L129.459 14.5693L130.355 19.6848C130.462 20.2971 130.042 20.8786 129.417 20.9836C129.169 21.0254 128.913 20.9857 128.689 20.8706L124 18.4553Z" fill="#EDEDED"/>
<path d="M119.311 20.8706L124 18.4553L126.698 19.8449V6.93923L125.029 3.62725C124.918 3.40542 124.734 3.22588 124.508 3.1164C123.939 2.84148 123.251 3.07019 122.97 3.62725L120.626 8.28154L115.383 9.02788C115.133 9.06346 114.902 9.17873 114.726 9.35587C114.283 9.8007 114.293 10.5128 114.747 10.9464L118.54 14.5693L117.645 19.6848C117.602 19.9287 117.643 20.1794 117.76 20.3984C118.055 20.9482 118.749 21.1596 119.311 20.8706Z" fill="#FFBD3D"/>
</svg>
