<svg width="193" height="193" viewBox="0 0 193 193" fill="none" xmlns="http://www.w3.org/2000/svg">
<g filter="url(#filter0_d_169_92)">
<rect x="32" y="16" width="129" height="129" rx="24" fill="url(#paint0_radial_169_92)"/>
</g>
<path d="M106.688 62.01V58.5C106.688 57.5775 105.923 56.8125 105 56.8125C104.078 56.8125 103.313 57.5775 103.313 58.5V61.875H88.6875V58.5C88.6875 57.5775 87.9225 56.8125 87 56.8125C86.0775 56.8125 85.3125 57.5775 85.3125 58.5V62.01C79.2375 62.5725 76.29 66.195 75.84 71.5725C75.795 72.225 76.335 72.765 76.965 72.765H115.035C115.688 72.765 116.228 72.2025 116.16 71.5725C115.71 66.195 112.763 62.5725 106.688 62.01Z" fill="white"/>
<path opacity="0.4" d="M116.25 78.39V82.305C116.25 83.6775 115.035 84.735 113.685 84.51C113.055 84.42 112.403 84.3525 111.75 84.3525C104.933 84.3525 99.375 89.91 99.375 96.7275C99.375 97.7625 99.78 99.2026 100.208 100.508C100.703 101.97 99.6225 103.477 98.07 103.477H87C79.125 103.477 75.75 98.9775 75.75 92.2275V78.3675C75.75 77.13 76.7625 76.1175 78 76.1175H114C115.237 76.14 116.25 77.1525 116.25 78.39Z" fill="white"/>
<path d="M111.75 87.75C106.777 87.75 102.75 91.7775 102.75 96.75C102.75 98.4375 103.223 100.035 104.055 101.385C105.608 103.995 108.465 105.75 111.75 105.75C115.035 105.75 117.892 103.995 119.445 101.385C120.277 100.035 120.75 98.4375 120.75 96.75C120.75 91.7775 116.722 87.75 111.75 87.75ZM116.407 95.7825L111.615 100.215C111.3 100.508 110.872 100.665 110.467 100.665C110.04 100.665 109.613 100.507 109.275 100.17L107.048 97.9425C106.395 97.29 106.395 96.21 107.048 95.5575C107.7 94.905 108.78 94.905 109.433 95.5575L110.512 96.6375L114.113 93.3075C114.788 92.6775 115.867 92.7225 116.497 93.3975C117.127 94.0725 117.082 95.13 116.407 95.7825Z" fill="white"/>
<path d="M88.125 87.75C87.54 87.75 86.955 87.5025 86.5275 87.0975C86.1225 86.67 85.875 86.085 85.875 85.5C85.875 84.915 86.1225 84.33 86.5275 83.9025C87.045 83.385 87.8325 83.1375 88.575 83.295C88.71 83.3175 88.845 83.3625 88.98 83.43C89.115 83.475 89.25 83.5425 89.385 83.6325C89.4975 83.7225 89.61 83.8125 89.7225 83.9025C90.1275 84.33 90.375 84.915 90.375 85.5C90.375 86.085 90.1275 86.67 89.7225 87.0975C89.61 87.1875 89.4975 87.2775 89.385 87.3675C89.25 87.4575 89.115 87.525 88.98 87.57C88.845 87.6375 88.71 87.6825 88.575 87.705C88.4175 87.7275 88.26 87.75 88.125 87.75Z" fill="white"/>
<path d="M96 87.75C95.415 87.75 94.83 87.5025 94.4025 87.0975C93.9975 86.67 93.75 86.085 93.75 85.5C93.75 84.915 93.9975 84.33 94.4025 83.9025C95.2575 83.07 96.765 83.07 97.5975 83.9025C98.0025 84.33 98.25 84.915 98.25 85.5C98.25 86.085 98.0025 86.67 97.5975 87.0975C97.17 87.5025 96.585 87.75 96 87.75Z" fill="white"/>
<path d="M88.125 95.625C87.54 95.625 86.955 95.3774 86.5275 94.9724C86.1225 94.5449 85.875 93.96 85.875 93.375C85.875 92.79 86.1225 92.205 86.5275 91.7775C86.7525 91.575 86.9775 91.4174 87.27 91.3049C88.1025 90.9449 89.0925 91.1475 89.7225 91.7775C90.1275 92.205 90.375 92.79 90.375 93.375C90.375 93.96 90.1275 94.5449 89.7225 94.9724C89.295 95.3774 88.71 95.625 88.125 95.625Z" fill="white"/>
<g filter="url(#filter1_f_169_92)">
<circle cx="88.5" cy="95.5" r="9.5" fill="white"/>
</g>
<defs>
<filter id="filter0_d_169_92" x="0" y="0" width="193" height="193" filterUnits="userSpaceOnUse" color-interpolation-filters="sRGB">
<feFlood flood-opacity="0" result="BackgroundImageFix"/>
<feColorMatrix in="SourceAlpha" type="matrix" values="0 0 0 0 0 0 0 0 0 0 0 0 0 0 0 0 0 0 127 0" result="hardAlpha"/>
<feOffset dy="16"/>
<feGaussianBlur stdDeviation="16"/>
<feComposite in2="hardAlpha" operator="out"/>
<feColorMatrix type="matrix" values="0 0 0 0 0.188235 0 0 0 0 0.513726 0 0 0 0 1 0 0 0 0.3 0"/>
<feBlend mode="normal" in2="BackgroundImageFix" result="effect1_dropShadow_169_92"/>
<feBlend mode="normal" in="SourceGraphic" in2="effect1_dropShadow_169_92" result="shape"/>
</filter>
<filter id="filter1_f_169_92" x="48" y="55" width="81" height="81" filterUnits="userSpaceOnUse" color-interpolation-filters="sRGB">
<feFlood flood-opacity="0" result="BackgroundImageFix"/>
<feBlend mode="normal" in="SourceGraphic" in2="BackgroundImageFix" result="shape"/>
<feGaussianBlur stdDeviation="15.5" result="effect1_foregroundBlur_169_92"/>
</filter>
<radialGradient id="paint0_radial_169_92" cx="0" cy="0" r="1" gradientUnits="userSpaceOnUse" gradientTransform="translate(96 165.5) rotate(-90) scale(149.5)">
<stop stop-color="#3083FF"/>
<stop offset="1" stop-color="#87B5FB"/>
</radialGradient>
</defs>
</svg>
