<svg width="108" height="108" viewBox="0 0 108 108" fill="none" xmlns="http://www.w3.org/2000/svg">
<g filter="url(#filter0_d_2_401)">
<rect x="32" y="20" width="44" height="44" rx="12" fill="white"/>
</g>
<path opacity="0.4" d="M54 32C51.38 32 49.25 34.13 49.25 36.75C49.25 39.32 51.26 41.4 53.88 41.49C53.96 41.48 54.04 41.48 54.1 41.49C54.12 41.49 54.13 41.49 54.15 41.49C54.16 41.49 54.16 41.49 54.17 41.49C56.73 41.4 58.74 39.32 58.75 36.75C58.75 34.13 56.62 32 54 32Z" fill="#3083FF"/>
<path opacity="0.4" d="M62.1692 48.9841C62.1254 48.5028 61.9971 47.9895 61.0608 47.9895H57.3392C56.4029 47.9895 56.2775 48.5028 56.2309 48.9841L56.0675 50.7603C56.0471 50.982 56.12 51.2037 56.2717 51.3699C56.4263 51.5391 56.645 51.6353 56.8784 51.6353H57.4267C57.8992 51.6353 57.9896 51.3641 58.0479 51.1862L58.1063 51.0112C58.1734 50.8099 58.1909 50.7603 58.4534 50.7603H59.9467C60.2092 50.7603 60.2179 50.7895 60.2938 51.0112L60.3521 51.1862C60.4104 51.3641 60.5009 51.6353 60.9734 51.6353H61.5217C61.7521 51.6353 61.9738 51.5391 62.1284 51.3699C62.28 51.2037 62.3529 50.982 62.3325 50.7603L62.1692 48.9841Z" fill="#3083FF"/>
<path d="M61.825 47.1146H61.5333C61.5304 47.1146 61.5304 47.1146 61.5275 47.1146L61.4167 46.5867C61.3117 46.0763 61.0929 45.6067 60.2238 45.6067H59.4188H58.9813H58.1763C57.3071 45.6067 57.0883 46.0763 56.9833 46.5867L56.8725 47.1146C56.8696 47.1146 56.8696 47.1146 56.8667 47.1146H56.575C56.4554 47.1146 56.3563 47.2138 56.3563 47.3334C56.3563 47.4529 56.4554 47.5521 56.575 47.5521H56.7821L56.6596 48.1354C56.8171 48.045 57.0358 47.9896 57.3392 47.9896H61.0608C61.3642 47.9896 61.5829 48.045 61.7404 48.1354L61.6179 47.5521H61.825C61.9446 47.5521 62.0438 47.4529 62.0438 47.3334C62.0438 47.2138 61.9446 47.1146 61.825 47.1146Z" fill="#3083FF"/>
<path d="M58.325 49.5938H57.45C57.3304 49.5938 57.2313 49.4946 57.2313 49.375C57.2313 49.2554 57.3304 49.1562 57.45 49.1562H58.325C58.4446 49.1562 58.5438 49.2554 58.5438 49.375C58.5438 49.4946 58.4446 49.5938 58.325 49.5938Z" fill="#3083FF"/>
<path d="M60.95 49.5938H60.075C59.9554 49.5938 59.8563 49.4946 59.8563 49.375C59.8563 49.2554 59.9554 49.1562 60.075 49.1562H60.95C61.0696 49.1562 61.1688 49.2554 61.1688 49.375C61.1688 49.4946 61.0696 49.5938 60.95 49.5938Z" fill="#3083FF"/>
<path fill-rule="evenodd" clip-rule="evenodd" d="M48.93 44.1499C51.74 42.2899 56.29 42.2899 59.08 44.1499C59.4911 44.4239 59.8415 44.7299 60.1274 45.0605C59.986 45.0214 59.8198 44.9999 59.6239 44.9999H58.729H58.2427H57.3478C56.3817 44.9999 56.1385 45.524 56.0218 46.0937L55.8986 46.6829H55.8921H55.5679C55.4349 46.6829 55.3247 46.7936 55.3247 46.927C55.3247 47.0605 55.4349 47.1712 55.5679 47.1712H55.7981L55.6626 47.8188C55.2955 48.0265 55.2204 48.4062 55.1853 48.7695L55.0037 50.752C54.981 50.9994 55.0621 51.2468 55.2307 51.4324C55.4025 51.6212 55.6457 51.7286 55.9051 51.7286H56.384C55.6141 51.9095 54.8071 51.9999 54 51.9999C52.16 51.9999 50.32 51.5299 48.92 50.5899C47.66 49.7499 46.96 48.6099 46.96 47.3799C46.96 46.1499 47.66 44.9999 48.93 44.1499ZM56.4173 47.6595C56.4028 47.6595 56.3885 47.6596 56.3744 47.6598C56.3885 47.6596 56.4028 47.6595 56.4173 47.6595H60.5544C60.5689 47.6595 60.5832 47.6596 60.5973 47.6598C60.5832 47.6596 60.5689 47.6595 60.5544 47.6595H56.4173Z" fill="#3083FF"/>
<defs>
<filter id="filter0_d_2_401" x="0" y="0" width="108" height="108" filterUnits="userSpaceOnUse" color-interpolation-filters="sRGB">
<feFlood flood-opacity="0" result="BackgroundImageFix"/>
<feColorMatrix in="SourceAlpha" type="matrix" values="0 0 0 0 0 0 0 0 0 0 0 0 0 0 0 0 0 0 127 0" result="hardAlpha"/>
<feOffset dy="12"/>
<feGaussianBlur stdDeviation="16"/>
<feComposite in2="hardAlpha" operator="out"/>
<feColorMatrix type="matrix" values="0 0 0 0 0.662188 0 0 0 0 0.662188 0 0 0 0 0.679167 0 0 0 0.16 0"/>
<feBlend mode="normal" in2="BackgroundImageFix" result="effect1_dropShadow_2_401"/>
<feBlend mode="normal" in="SourceGraphic" in2="effect1_dropShadow_2_401" result="shape"/>
</filter>
</defs>
</svg>
