<svg width="38" height="38" viewBox="0 0 38 38" fill="none" xmlns="http://www.w3.org/2000/svg">
<circle cx="19" cy="19" r="18" stroke="#505865"/>
<path d="M14.8482 26.5V16.4664H11.7344V26.5H14.8482ZM13.2746 15.1242C14.279 15.1242 15.0826 14.2852 15.0826 13.2785C15.0826 12.3054 14.279 11.5 13.2746 11.5C12.3036 11.5 11.5 12.3054 11.5 13.2785C11.5 14.2852 12.3036 15.1242 13.2746 15.1242ZM26.4665 26.5H26.5V20.9966C26.5 18.3121 25.8973 16.2315 22.75 16.2315C21.2433 16.2315 20.2388 17.0705 19.8036 17.8423H19.7701V16.4664H16.7902V26.5H19.904V21.5336C19.904 20.2248 20.1384 18.9832 21.7455 18.9832C23.3527 18.9832 23.3862 20.4597 23.3862 21.6342V26.5H26.4665Z" fill="white"/>
</svg>
