<svg width="64" height="64" viewBox="0 0 64 64" fill="none" xmlns="http://www.w3.org/2000/svg">
<path d="M62 45.283L59.953 41.124L54.917 44.037L54.758 43.888C54.798 43.863 54.839 43.843 54.878 43.815C54.878 43.815 59.477 41.09 59.591 41.008C61.238 39.815 61.157 36.684 59.411 34.014C57.663 31.342 54.908 30.145 53.261 31.336L48.901 33.936C48.779 33.996 48.661 34.065 48.548 34.146C47.781 34.7 47.612 35.97 47.793 37.336L47.652 37.203V33.39L43.273 26.452L40.726 24.768C40.726 24.768 41.09 24.567 41.223 24.474C43.122 23.097 43.031 19.488 41.015 16.408C39 13.331 35.824 11.946 33.924 13.322L25.085 18.593L25.153 19.727L24.545 20.06L19.026 17.918V16.673L26.695 12.626L22.72 9L2 16.758L8.138 22.422L14.995 18.803V20.569L18.636 23.296L16.868 24.263L14.528 23.728L10.899 25.8V26.405L5.46 29.645C5.3 29.722 5.145 29.814 4.997 29.92C3.021 31.35 4.082 36.42 5.709 38.908C7.415 41.512 9.588 43.128 11.477 43.128C12.1207 43.1321 12.7486 42.9291 13.268 42.549L18.957 39.16C19.1198 39.0818 19.2754 38.9894 19.422 38.884C19.7623 38.6318 20.0509 38.3164 20.272 37.955L25.221 41.675L31.783 43.161C31.683 43.216 31.583 43.27 31.489 43.339C29.743 44.601 30.679 49.078 32.116 51.276C33.622 53.574 35.541 55 37.207 55C37.771 55 38.306 54.837 38.786 54.489L43.547 51.653L48.902 54.059L62 45.283ZM58.625 42.265L60.334 45.932L59.234 46.668L57.334 43.035L58.625 42.265ZM21.098 9.972L24.553 13.35L23.235 14.046L19.438 10.593L21.098 9.972ZM10.899 20.502L5.187 16.046L7.63 15.131L12.682 19.562L10.899 20.502ZM49.135 34.955C49.3989 34.7696 49.7156 34.6742 50.038 34.683C51.066 34.683 52.647 35.515 53.861 37.371C55.418 39.749 55.338 42.248 54.291 43.005C54.194 43.075 54.092 43.121 53.986 43.161L52.519 41.782C52.83 41.8222 53.1444 41.7401 53.396 41.553C54.274 40.919 54.23 39.253 53.3 37.834C52.37 36.411 50.905 35.775 50.029 36.409C49.418 36.85 49.418 37.786 49.784 38.793L51.248 37.967C52.141 37.515 53.326 38.75 52.729 39.668L51.245 40.583L49.062 38.53C48.605 36.981 48.568 35.364 49.135 34.955ZM48.984 47.706L45.144 50.081C45.705 48.909 45.721 47.288 45.173 45.601L48.984 47.706ZM45.024 44.151L44.677 44.364C44.4814 43.959 44.2596 43.5672 44.013 43.191C43.8509 42.946 43.6787 42.7078 43.497 42.477L43.542 42.452C44.436 41.999 45.621 43.235 45.024 44.151ZM28.391 17.155L42.721 26.708L47.112 33.641L45.94 34.35L41.467 27.36L27.161 17.884L28.391 17.155ZM37.46 30.775C37.576 30.766 37.676 30.69 37.763 30.571C37.342 32.326 36.201 33.213 34.017 33.213C31.158 33.213 27.602 31.703 27.602 28.697C27.602 25.69 29.92 23.254 32.78 23.254C35.276 23.254 37.358 25.109 37.849 27.579C37.754 27.44 37.638 27.354 37.494 27.365C34.615 27.574 30.814 27.546 30.693 28.626C30.571 29.708 32.927 31.102 37.46 30.775ZM16.107 19.884V18.216L18.027 17.203V18.605L29.621 23.103L26.231 24.728L16.107 19.884ZM14.548 25.894C13.77 25.644 13.013 25.589 12.325 25.741L13.403 25.125L14.548 25.894ZM11.477 42.128C9.957 42.128 8.067 40.685 6.546 38.361C5.053 36.077 4.29 31.666 5.584 30.729C5.963 30.455 6.42 30.315 6.943 30.315C8.655 30.315 10.766 31.782 12.193 33.963C14.151 36.955 14.375 40.515 12.681 41.737C12.3335 41.996 11.9104 42.1334 11.477 42.128ZM25.221 35.837L20.511 32.505C19.9853 30.8923 19.1101 29.4155 17.948 28.18L27.542 34.63L38.418 38.979L36.773 39.973L25.221 35.837ZM37.207 54C35.926 54 34.255 52.716 32.952 50.729C31.545 48.577 31.053 44.888 32.074 44.15C32.388 43.922 32.768 43.808 33.205 43.808C34.68 43.808 36.502 45.079 37.741 46.972C39.435 49.564 39.646 52.634 38.199 53.68C37.901 53.896 37.576 54 37.207 54ZM47.271 49.19L51.335 52.008L50.208 52.764L45.937 50.014L47.271 49.19Z" fill="#FF0000"/>
<path d="M6.933 32.876C5.788 33.703 6.26 35.85 7.475 37.706C8.69 39.561 10.188 40.424 11.332 39.595C12.477 38.767 12.42 36.592 11.207 34.737C9.991 32.879 8.078 32.048 6.933 32.876ZM33.197 45.95C32.184 46.679 32.602 48.574 33.673 50.215C34.745 51.853 36.068 52.612 37.078 51.881C38.09 51.15 38.04 49.23 36.968 47.592C35.895 45.952 34.208 45.22 33.197 45.95Z" fill="#FF0000"/>
</svg>
