<svg width="108" height="108" viewBox="0 0 108 108" fill="none" xmlns="http://www.w3.org/2000/svg">
<g filter="url(#filter0_d_2_424)">
<rect x="32" y="20" width="44" height="44" rx="12" fill="white"/>
</g>
<path opacity="0.4" d="M66.53 42.05C66.24 41.76 65.76 41.76 65.47 42.05L65.01 42.51V42C65.01 36.48 60.52 31.99 55 31.99C51.95 31.99 49.1 33.36 47.19 35.74C46.93 36.06 46.98 36.54 47.31 36.79C47.63 37.05 48.11 37 48.36 36.67C49.99 34.64 52.41 33.48 55 33.48C59.69 33.48 63.51 37.3 63.51 41.99V42.49L63.05 42.03C62.76 41.74 62.28 41.74 61.99 42.03C61.7 42.32 61.7 42.8 61.99 43.09L63.73 44.83C63.8 44.9 63.88 44.95 63.97 44.99C64.06 45.03 64.16 45.05 64.26 45.05C64.36 45.05 64.45 45.03 64.55 44.99C64.64 44.95 64.72 44.9 64.79 44.83L66.53 43.09C66.82 42.82 66.82 42.34 66.53 42.05Z" fill="#3083FF"/>
<path opacity="0.4" d="M62.69 47.2C62.37 46.94 61.89 46.9899 61.64 47.3199C60.01 49.3499 57.59 50.51 55 50.51C50.31 50.51 46.49 46.6899 46.49 41.9999V41.4999L46.95 41.96C47.1 42.11 47.29 42.1799 47.48 42.1799C47.67 42.1799 47.86 42.11 48.01 41.96C48.3 41.67 48.3 41.19 48.01 40.9L46.27 39.1599C46.2 39.0899 46.12 39.0399 46.03 38.9999C45.85 38.9199 45.64 38.9199 45.46 38.9999C45.37 39.0399 45.29 39.0899 45.22 39.1599L43.48 40.9C43.19 41.19 43.19 41.67 43.48 41.96C43.77 42.25 44.25 42.25 44.54 41.96L45 41.4999V41.9999C45 47.5199 49.49 52.01 55.01 52.01C58.06 52.01 60.91 50.64 62.82 48.26C63.07 47.94 63.02 47.46 62.69 47.2Z" fill="#3083FF"/>
<path d="M50.0287 45.5V45.0091C50.0287 44.6491 50.1308 44.2924 50.3349 43.939C50.5391 43.579 50.7847 43.2583 51.0718 42.9769C51.3653 42.6889 51.6555 42.4173 51.9426 42.162C52.2297 41.9002 52.4753 41.6351 52.6795 41.3668C52.8836 41.0984 52.9857 40.8497 52.9857 40.6206C52.9857 40.3654 52.9091 40.1625 52.756 40.0119C52.6029 39.8548 52.3924 39.7763 52.1244 39.7763C51.8096 39.7763 51.5652 39.8925 51.3912 40.1249C51.2241 40.3481 50.9586 40.5157 50.6915 40.4356L50.4473 40.3622C50.1955 40.2866 50.0405 40.0256 50.1486 39.7859C50.1679 39.7431 50.1885 39.7006 50.2105 39.6585C50.3062 39.4752 50.4338 39.292 50.5933 39.1087C50.7592 38.9254 50.9793 38.7782 51.2536 38.6669C51.5279 38.5556 51.8373 38.5 52.1819 38.5C52.8326 38.5 53.3589 38.6898 53.7608 39.0694C54.1627 39.4425 54.3637 39.9399 54.3637 40.5617C54.3637 40.9021 54.2776 41.2326 54.1053 41.5533C53.9331 41.874 53.7194 42.1554 53.4642 42.3976C53.209 42.6332 52.9506 42.859 52.689 43.075C52.4338 43.2845 52.2042 43.4972 52 43.7132C51.7959 43.9226 51.6715 44.1157 51.6268 44.2924H53.9403C54.2164 44.2924 54.4403 44.5163 54.4403 44.7924V45C54.4403 45.2761 54.2164 45.5 53.9403 45.5H50.0287Z" fill="#3083FF"/>
<path d="M55.3994 43.8997C55.1233 43.8997 54.8994 43.6759 54.8994 43.3997V42.9081L57.6459 38.6276H59.2153V42.7216H59.5C59.7761 42.7216 60 42.9455 60 43.2216V43.3997C60 43.6759 59.7761 43.8997 59.5 43.8997H59.2153V45C59.2153 45.2761 58.9914 45.5 58.7153 45.5H58.3851C58.109 45.5 57.8851 45.2761 57.8851 45V43.8997H55.3994ZM56.287 42.7216H57.8851V40.169L56.287 42.7216Z" fill="#3083FF"/>
<defs>
<filter id="filter0_d_2_424" x="0" y="0" width="108" height="108" filterUnits="userSpaceOnUse" color-interpolation-filters="sRGB">
<feFlood flood-opacity="0" result="BackgroundImageFix"/>
<feColorMatrix in="SourceAlpha" type="matrix" values="0 0 0 0 0 0 0 0 0 0 0 0 0 0 0 0 0 0 127 0" result="hardAlpha"/>
<feOffset dy="12"/>
<feGaussianBlur stdDeviation="16"/>
<feComposite in2="hardAlpha" operator="out"/>
<feColorMatrix type="matrix" values="0 0 0 0 0.662188 0 0 0 0 0.662188 0 0 0 0 0.679167 0 0 0 0.16 0"/>
<feBlend mode="normal" in2="BackgroundImageFix" result="effect1_dropShadow_2_424"/>
<feBlend mode="normal" in="SourceGraphic" in2="effect1_dropShadow_2_424" result="shape"/>
</filter>
</defs>
</svg>
