<svg width="38" height="38" viewBox="0 0 38 38" fill="none" xmlns="http://www.w3.org/2000/svg">
<path d="M24.9736 16.2692C25.5607 15.8174 26.089 15.2752 26.5 14.6427C25.9716 14.8836 25.3552 15.0643 24.7387 15.1246C25.3845 14.733 25.8542 14.1306 26.089 13.3776C25.502 13.739 24.8268 14.0101 24.1517 14.1607C23.5646 13.5282 22.772 13.1667 21.8914 13.1667C20.1888 13.1667 18.8092 14.5824 18.8092 16.3294C18.8092 16.5704 18.8386 16.8113 18.8973 17.0523C16.3434 16.9017 14.0538 15.6366 12.5274 13.739C12.2632 14.1908 12.1164 14.733 12.1164 15.3354C12.1164 16.4198 12.6448 17.3836 13.4961 17.9559C12.9971 17.9258 12.498 17.8053 12.0871 17.5643V17.5945C12.0871 19.1306 13.1438 20.3957 14.5528 20.6969C14.318 20.7571 14.0245 20.8174 13.7603 20.8174C13.5548 20.8174 13.3787 20.7872 13.1732 20.7571C13.5548 22.0222 14.6996 22.9258 16.0499 22.9559C14.9932 23.7993 13.6722 24.3113 12.2339 24.3113C11.9697 24.3113 11.7348 24.2812 11.5 24.2511C12.8503 25.1547 14.4648 25.6667 16.226 25.6667C21.8914 25.6667 24.9736 20.8776 24.9736 16.6908C24.9736 16.5402 24.9736 16.4198 24.9736 16.2692Z" fill="white"/>
<circle cx="19" cy="19" r="18" stroke="#505865"/>
</svg>
