<svg width="108" height="108" viewBox="0 0 108 108" fill="none" xmlns="http://www.w3.org/2000/svg">
<g filter="url(#filter0_d_163_90)">
<rect x="32" y="20" width="44" height="44" rx="12" fill="white"/>
</g>
<path opacity="0.8" d="M54.9 32.5201L54.87 32.5901L51.97 39.3201H49.12C48.44 39.3201 47.8 39.4501 47.2 39.7101L48.95 35.5301L48.99 35.4401L49.05 35.2801C49.08 35.2101 49.1 35.1501 49.13 35.1001C50.44 32.0701 51.92 31.3801 54.9 32.5201Z" fill="#3083FF"/>
<path d="M60.29 39.52C59.84 39.39 59.37 39.32 58.88 39.32H51.97L54.87 32.59L54.9 32.52C55.04 32.57 55.19 32.64 55.34 32.69L57.55 33.62C58.78 34.13 59.64 34.66 60.17 35.3C60.26 35.42 60.34 35.53 60.42 35.66C60.51 35.8 60.58 35.94 60.62 36.09C60.66 36.18 60.69 36.26 60.71 36.35C60.97 37.2 60.81 38.23 60.29 39.52Z" fill="#3083FF"/>
<path opacity="0.4" d="M63.76 44.2001V46.1501C63.76 46.3501 63.75 46.5501 63.74 46.7401C63.55 50.2401 61.6 52.0001 57.9 52.0001H50.1C49.85 52.0001 49.62 51.9801 49.39 51.9501C46.21 51.7401 44.51 50.0401 44.29 46.8601C44.26 46.6201 44.24 46.3901 44.24 46.1501V44.2001C44.24 42.1901 45.46 40.4601 47.2 39.7101C47.8 39.4501 48.44 39.3201 49.12 39.3201H58.88C59.37 39.3201 59.84 39.3901 60.29 39.5201C62.29 40.1301 63.76 41.9901 63.76 44.2001Z" fill="#3083FF"/>
<path opacity="0.6" d="M48.95 35.53L47.2 39.71C45.46 40.46 44.24 42.19 44.24 44.2V41.27C44.24 38.43 46.26 36.06 48.95 35.53Z" fill="#3083FF"/>
<path opacity="0.6" d="M63.76 41.2701V44.2001C63.76 41.9901 62.29 40.1301 60.29 39.5201C60.81 38.2301 60.97 37.2001 60.71 36.3501C60.69 36.2601 60.66 36.1801 60.62 36.0901C62.49 37.0601 63.76 39.0301 63.76 41.2701Z" fill="#3083FF"/>
<defs>
<filter id="filter0_d_163_90" x="0" y="0" width="108" height="108" filterUnits="userSpaceOnUse" color-interpolation-filters="sRGB">
<feFlood flood-opacity="0" result="BackgroundImageFix"/>
<feColorMatrix in="SourceAlpha" type="matrix" values="0 0 0 0 0 0 0 0 0 0 0 0 0 0 0 0 0 0 127 0" result="hardAlpha"/>
<feOffset dy="12"/>
<feGaussianBlur stdDeviation="16"/>
<feComposite in2="hardAlpha" operator="out"/>
<feColorMatrix type="matrix" values="0 0 0 0 0.662188 0 0 0 0 0.662188 0 0 0 0 0.679167 0 0 0 0.16 0"/>
<feBlend mode="normal" in2="BackgroundImageFix" result="effect1_dropShadow_163_90"/>
<feBlend mode="normal" in="SourceGraphic" in2="effect1_dropShadow_163_90" result="shape"/>
</filter>
</defs>
</svg>
