<svg width="38" height="38" viewBox="0 0 38 38" fill="none" xmlns="http://www.w3.org/2000/svg">
<circle cx="19" cy="19" r="18" stroke="#505865"/>
<path d="M19.0167 15.1328C16.8739 15.1328 15.1663 16.8739 15.1663 18.9833C15.1663 21.1261 16.8739 22.8337 19.0167 22.8337C21.1261 22.8337 22.8672 21.1261 22.8672 18.9833C22.8672 16.8739 21.1261 15.1328 19.0167 15.1328ZM19.0167 21.4944C17.644 21.4944 16.5056 20.3895 16.5056 18.9833C16.5056 17.6105 17.6105 16.5056 19.0167 16.5056C20.3895 16.5056 21.4944 17.6105 21.4944 18.9833C21.4944 20.3895 20.3895 21.4944 19.0167 21.4944ZM23.9051 14.9989C23.9051 14.4967 23.5033 14.0949 23.0011 14.0949C22.4989 14.0949 22.0971 14.4967 22.0971 14.9989C22.0971 15.5011 22.4989 15.9029 23.0011 15.9029C23.5033 15.9029 23.9051 15.5011 23.9051 14.9989ZM26.4498 15.9029C26.3828 14.6975 26.115 13.6261 25.2444 12.7556C24.3739 11.885 23.3025 11.6172 22.0971 11.5502C20.8583 11.4833 17.1417 11.4833 15.9029 11.5502C14.6975 11.6172 13.6596 11.885 12.7556 12.7556C11.885 13.6261 11.6172 14.6975 11.5502 15.9029C11.4833 17.1417 11.4833 20.8583 11.5502 22.0971C11.6172 23.3025 11.885 24.3404 12.7556 25.2444C13.6596 26.115 14.6975 26.3828 15.9029 26.4498C17.1417 26.5167 20.8583 26.5167 22.0971 26.4498C23.3025 26.3828 24.3739 26.115 25.2444 25.2444C26.115 24.3404 26.3828 23.3025 26.4498 22.0971C26.5167 20.8583 26.5167 17.1417 26.4498 15.9029ZM24.8426 23.4029C24.6083 24.0725 24.0725 24.5748 23.4364 24.8426C22.4319 25.2444 20.0882 25.144 19.0167 25.144C17.9118 25.144 15.5681 25.2444 14.5971 24.8426C13.9275 24.5748 13.4252 24.0725 13.1574 23.4029C12.7556 22.4319 12.856 20.0882 12.856 18.9833C12.856 17.9118 12.7556 15.5681 13.1574 14.5636C13.4252 13.9275 13.9275 13.4252 14.5971 13.1574C15.5681 12.7556 17.9118 12.856 19.0167 12.856C20.0882 12.856 22.4319 12.7556 23.4364 13.1574C24.0725 13.3917 24.5748 13.9275 24.8426 14.5636C25.2444 15.5681 25.144 17.9118 25.144 18.9833C25.144 20.0882 25.2444 22.4319 24.8426 23.4029Z" fill="white"/>
</svg>
