<svg width="38" height="38" viewBox="0 0 38 38" fill="none" xmlns="http://www.w3.org/2000/svg">
<circle cx="19" cy="19" r="18" stroke="#505865"/>
<path d="M28.5612 14.3828C28.3419 13.4453 27.6472 12.7031 26.8062 12.4688C25.234 12 19.0183 12 19.0183 12C19.0183 12 12.766 12 11.1938 12.4688C10.3528 12.7031 9.65814 13.4453 9.43876 14.3828C9 16.0234 9 19.5391 9 19.5391C9 19.5391 9 23.0156 9.43876 24.6953C9.65814 25.6328 10.3528 26.3359 11.1938 26.5703C12.766 27 19.0183 27 19.0183 27C19.0183 27 25.234 27 26.8062 26.5703C27.6472 26.3359 28.3419 25.6328 28.5612 24.6953C29 23.0156 29 19.5391 29 19.5391C29 19.5391 29 16.0234 28.5612 14.3828ZM16.9707 22.7031V16.375L22.1627 19.5391L16.9707 22.7031Z" fill="white"/>
</svg>
