<?xml version="1.0" standalone="no"?>
<!DOCTYPE svg PUBLIC "-//W3C//DTD SVG 20010904//EN"
 "http://www.w3.org/TR/2001/REC-SVG-20010904/DTD/svg10.dtd">
<svg version="1.0" xmlns="http://www.w3.org/2000/svg"
 width="100px" height="100px" viewBox="0 0 920.000000 920.000000"
 preserveAspectRatio="xMidYMid meet">

<g transform="translate(0.000000,920.000000) scale(0.100000,-0.100000)"
fill="#000000" stroke="none">
<path d="M3590 5715 l0 -35 -70 0 -70 0 0 -35 0 -35 -70 0 -70 0 0 -40 0 -40
-40 0 c-39 0 -40 -1 -40 -35 l0 -35 -70 0 -70 0 0 -35 c0 -33 -2 -35 -35 -35
-33 0 -35 -2 -35 -35 0 -33 -2 -35 -35 -35 -33 0 -35 2 -35 35 l0 35 -75 0
-75 0 0 -35 c0 -33 -2 -35 -35 -35 -33 0 -35 -2 -35 -35 0 -33 -2 -35 -35 -35
-34 0 -35 -1 -35 -40 l0 -40 -110 0 -110 0 0 -35 0 -35 -395 0 -395 0 0 -35 0
-35 -105 0 -105 0 0 -35 0 -35 -75 0 -75 0 0 -35 c0 -33 -2 -35 -35 -35 -33 0
-35 -2 -35 -35 0 -35 -4 -39 -47 -37 -23 1 -23 -1 -23 -108 l0 -110 -35 0 -35
0 0 -430 0 -430 35 0 c33 0 35 -2 35 -35 0 -33 2 -35 35 -35 l35 0 0 -75 0
-75 75 0 75 0 0 -35 c0 -33 2 -35 35 -35 33 0 35 -2 35 -35 l0 -35 -110 0
-110 0 0 -35 0 -35 3235 0 3235 0 0 35 0 35 -70 0 -70 0 0 105 0 105 35 0 35
0 0 110 0 110 35 0 c33 0 35 2 35 35 0 33 2 35 35 35 l35 0 0 145 0 145 35 0
35 0 0 250 0 250 -35 0 c-33 0 -35 2 -35 35 0 33 -2 35 -35 35 l-35 0 0 145 0
145 -35 0 c-33 0 -35 2 -35 35 l0 35 -76 0 -76 0 4 36 3 36 -218 -2 -217 -1 0
41 c0 39 -1 40 -35 40 -33 0 -35 2 -35 35 l0 35 -70 0 -70 0 0 35 c0 33 -2 35
-35 35 -33 0 -35 2 -35 35 0 34 -1 35 -40 35 -39 0 -40 -1 -42 -37 -1 -37 -1
-37 -5 -6 -4 27 -9 32 -36 36 -31 4 -31 4 6 5 35 2 37 4 37 37 l0 35 -70 0
-70 0 0 40 0 40 -70 0 -70 0 0 35 0 35 -110 0 -110 0 0 -35 0 -35 -324 0 -325
0 -4 -37 -4 -38 -1 36 -2 36 -65 1 -65 1 0 -38 c0 -30 -4 -38 -17 -38 -50 0
-53 -3 -53 -38 0 -33 -2 -35 -35 -35 -33 0 -35 -2 -35 -35 0 -34 -1 -35 -38
-35 l-38 0 1 -70 1 -70 -108 0 -108 0 0 70 0 70 -35 0 c-33 0 -35 2 -35 35 l0
35 -145 0 -145 0 0 35 0 35 360 0 360 0 0 40 0 40 -108 0 -109 0 1 33 1 32
535 0 535 0 3 38 3 37 -1295 0 -1296 0 0 -35z m580 -67 c0 -24 4 -27 38 -31
20 -2 -108 -4 -285 -5 l-323 -2 0 33 0 32 285 0 285 0 0 -27z m273 -35 c-13
-2 -35 -2 -50 0 -16 2 -5 4 22 4 28 0 40 -2 28 -4z m525 0 c-71 -2 -185 -2
-255 0 -71 1 -13 3 127 3 140 0 198 -2 128 -3z m-1448 -43 c0 -28 -3 -30 -35
-30 -32 0 -35 2 -35 30 0 28 3 30 35 30 32 0 35 -2 35 -30z m2872 -2 l3 -33
73 -3 72 -3 0 -35 c0 -34 -1 -35 -32 -32 -28 2 -34 8 -36 31 -3 24 -8 27 -38
27 -31 0 -34 -2 -34 -30 0 -28 3 -30 35 -30 33 0 35 -2 35 -35 0 -33 2 -35 35
-35 33 0 35 -2 35 -35 0 -33 2 -35 35 -35 33 0 35 -2 35 -35 l0 -35 -105 0
-105 0 0 35 c0 34 -1 35 -40 35 l-39 0 1 58 c1 84 2 82 -38 82 -35 0 -35 1
-32 38 3 36 2 37 -34 40 -35 3 -38 6 -38 33 l0 29 104 0 105 0 3 -32z m-3014
-70 c-3 -28 -7 -31 -36 -32 -30 -1 -32 1 -32 32 0 30 2 32 36 32 34 0 35 -1
32 -32z m862 -108 l0 -140 35 0 35 0 0 -75 0 -75 -70 0 -70 0 0 -35 0 -35
-860 0 -860 0 0 35 0 35 320 0 320 0 0 35 c0 33 2 35 35 35 34 0 35 1 35 40 0
40 0 40 38 40 35 0 37 2 37 33 0 30 2 32 38 35 35 3 37 5 37 38 l0 34 70 0 70
0 0 35 0 35 70 0 70 0 0 35 0 35 325 0 325 0 0 -140z m1940 70 l0 -70 35 0 35
0 0 -70 0 -70 -70 0 -70 0 0 70 0 70 -35 0 c-33 0 -35 2 -35 35 l0 35 -180 0
-180 0 0 -35 c0 -33 -2 -35 -35 -35 l-35 0 0 -75 0 -75 108 0 109 0 -5 -30 -4
-30 -139 0 -139 0 0 35 0 35 -75 0 -75 0 0 70 0 70 35 0 35 0 0 70 0 70 360 0
360 0 0 -70z m-2902 -7 c-22 -3 -28 -10 -31 -36 -4 -31 -4 -31 -5 6 -2 36 -1
37 31 36 29 -2 29 -2 5 -6z m1252 -28 c0 -33 -2 -35 -35 -35 -33 0 -35 -2 -35
-35 0 -34 -1 -35 -40 -35 l-40 0 0 70 0 70 75 0 75 0 0 -35z m-1370 -70 c0
-34 -1 -35 -37 -33 -37 1 -37 1 -5 5 26 4 32 9 32 28 0 18 -6 25 -27 28 -26 4
-26 4 5 6 30 1 32 -1 32 -34z m3590 27 c0 -5 -13 -7 -30 -4 -16 2 -30 6 -30 8
0 2 14 4 30 4 17 0 30 -4 30 -8z m-3878 -97 c4 -34 3 -35 -29 -35 -31 0 -33 2
-33 35 0 32 3 35 29 35 25 0 29 -4 33 -35z m4098 -75 c0 -16 -2 -30 -4 -30 -2
0 -6 14 -8 30 -3 17 -1 30 4 30 4 0 8 -13 8 -30z m-302 -47 c-10 -2 -26 -2
-35 0 -10 3 -2 5 17 5 19 0 27 -2 18 -5z m372 -28 l0 -35 148 -2 c81 -1 130
-3 110 -5 -34 -4 -38 -7 -38 -34 l0 -29 -180 0 -180 0 0 -35 c0 -33 -2 -35
-35 -35 -33 0 -35 2 -35 35 0 33 2 35 35 35 33 0 35 2 35 35 0 33 2 35 35 35
33 0 35 2 35 35 0 33 2 35 35 35 33 0 35 -2 35 -35z m-442 -42 c-10 -2 -28 -2
-40 0 -13 2 -5 4 17 4 22 1 32 -1 23 -4z m-4260 -70 l-108 -4 0 -29 c0 -26 -3
-29 -37 -32 -36 -3 -38 -5 -37 -35 1 -31 -2 -33 -33 -33 -31 0 -33 2 -33 35 0
33 2 35 35 35 33 0 35 2 33 30 l-2 30 -216 -2 -215 -3 1 -27 c1 -25 -2 -28
-32 -28 -32 0 -34 2 -34 35 l0 35 393 -2 c215 -1 344 -4 285 -5z m2085 0 c-7
-2 -19 -2 -25 0 -7 3 -2 5 12 5 14 0 19 -2 13 -5z m244 1 c-3 -3 -12 -4 -19
-1 -8 3 -5 6 6 6 11 1 17 -2 13 -5z m40 0 c-3 -3 -12 -4 -19 -1 -8 3 -5 6 6 6
11 1 17 -2 13 -5z m276 -1 c-35 -2 -91 -2 -125 0 -35 2 -7 3 62 3 69 0 97 -1
63 -3z m94 1 c-3 -3 -12 -4 -19 -1 -8 3 -5 6 6 6 11 1 17 -2 13 -5z m301 -1
c-10 -2 -28 -2 -40 0 -13 2 -5 4 17 4 22 1 32 -1 23 -4z m765 0 c-45 -2 -122
-2 -170 0 -48 1 -11 3 82 3 94 0 133 -2 88 -3z m250 0 c-29 -2 -78 -2 -110 0
-32 2 -8 3 52 3 61 0 87 -1 58 -3z m-4883 -98 c0 -33 -2 -35 -35 -35 -33 0
-35 2 -35 35 0 33 2 35 35 35 33 0 35 -2 35 -35z m-142 -75 c-1 -27 -4 -30
-35 -30 -30 0 -33 3 -33 30 0 28 3 30 34 30 32 0 35 -2 34 -30z m-2 -145 c0
-33 -2 -35 -33 -35 -31 0 -33 -2 -33 -35 l0 -35 70 0 70 0 0 70 0 70 35 0 c33
0 35 -2 35 -35 0 -33 2 -35 35 -35 33 0 35 -2 35 -35 l0 -35 -69 0 -70 0 -3
-36 -3 -36 -70 0 -70 0 -3 36 c-3 34 -5 36 -38 36 l-34 0 0 70 0 70 73 0 73 0
0 -35z m1940 -35 l-4 -70 184 0 184 0 0 34 c0 33 -2 35 -37 38 -35 3 -38 6
-41 36 l-3 32 76 0 77 0 -4 -70 -3 -70 38 0 37 0 0 70 0 70 70 0 70 0 0 -35
c0 -33 -2 -35 -35 -35 -33 0 -35 -2 -35 -35 0 -33 -2 -35 -35 -35 -33 0 -35
-2 -35 -35 l0 -35 -290 0 -290 0 0 35 c0 33 -2 35 -35 35 -33 0 -35 2 -35 35
0 33 -2 35 -35 35 -33 0 -35 -2 -35 -35 0 -33 -2 -35 -35 -35 -33 0 -35 2 -35
35 0 33 2 35 35 35 33 0 35 2 35 35 l0 35 111 0 110 0 -5 -70z m-1668 -77
c-10 -2 -26 -2 -35 0 -10 3 -2 5 17 5 19 0 27 -2 18 -5z m3259 -55 c-3 -8 -6
-5 -6 6 -1 11 2 17 5 13 3 -3 4 -12 1 -19z m-155 -115 c3 -36 5 -38 38 -38 33
-1 35 -3 38 -38 l3 -37 -40 0 c-40 0 -41 1 -41 35 l0 35 -105 0 -105 0 0 -70
0 -70 -35 0 -35 0 0 -214 0 -213 25 0 c14 0 25 4 25 9 0 5 3 7 8 5 4 -3 8 6 9
20 l1 26 -19 -29 c-10 -16 -19 -23 -19 -16 0 7 -3 11 -8 9 -4 -3 -7 7 -7 22
-1 24 3 27 25 25 14 -1 42 -2 63 -3 36 -1 37 -2 37 -36 0 -33 2 -35 35 -35
l35 0 0 180 0 180 -35 0 -35 0 0 -70 0 -70 -35 0 -35 0 0 70 0 70 35 0 c34 0
35 1 36 43 1 23 2 56 1 72 0 20 2 24 5 10 l6 -20 8 20 c6 17 8 17 8 3 1 -12 7
-16 19 -12 16 5 16 5 -1 -6 -9 -6 -14 -16 -11 -22 4 -6 2 -8 -4 -4 -6 3 -13 3
-16 -2 -3 -5 8 -8 24 -8 25 0 28 3 28 32 0 26 -3 31 -16 27 -12 -3 -13 -2 -5
4 7 5 30 7 51 5 l39 -4 10 -71 c7 -50 11 -60 12 -34 1 29 5 37 20 37 14 0 18
-7 17 -29 0 -16 -5 -27 -9 -24 -5 3 -7 14 -4 24 3 11 1 19 -4 19 -5 0 -8 -13
-7 -28 1 -19 8 -28 20 -29 14 -1 18 6 18 33 0 33 1 34 40 34 l40 0 0 -284 0
-285 -37 -3 -38 -3 3 -72 4 -73 -41 0 c-40 0 -41 -1 -41 -35 l0 -35 -105 0
-105 0 0 35 c0 33 -2 35 -35 35 l-34 0 -3 73 -3 72 -35 1 -35 0 -3 287 -2 287
40 0 40 0 0 73 0 72 33 0 c30 0 32 2 35 38 l3 37 104 0 104 0 3 -37z m481 30
c-7 -2 -19 -2 -25 0 -7 3 -2 5 12 5 14 0 19 -2 13 -5z m2179 -30 c3 -36 5 -38
41 -41 35 -3 37 -5 37 -38 0 -33 -1 -34 -40 -34 -39 0 -40 1 -40 35 l0 35
-105 0 -105 0 0 -70 0 -70 -35 0 -35 0 0 -214 0 -213 25 0 c14 0 25 4 25 9 0
5 3 7 8 5 4 -3 8 6 9 20 l1 26 -19 -29 c-10 -16 -19 -23 -19 -16 0 7 -3 11 -8
9 -4 -3 -7 7 -7 22 -1 24 3 27 25 25 14 -1 42 -2 63 -3 36 -1 37 -2 37 -36 0
-33 2 -35 35 -35 l35 0 0 180 0 180 -35 0 -35 0 0 -70 0 -70 -35 0 -35 0 0 70
0 70 35 0 c35 0 35 0 36 48 1 26 1 58 1 72 -1 20 0 21 5 5 3 -11 10 -24 15
-30 8 -7 9 -5 5 8 -4 9 -2 17 4 17 6 0 9 -8 7 -17 -2 -10 -10 -17 -16 -15 -7
1 -12 -2 -12 -7 0 -5 13 -9 29 -9 26 1 29 5 29 30 -1 20 -4 25 -9 16 -6 -9 -9
-9 -9 -1 0 6 -8 13 -17 15 -10 3 10 5 45 6 l62 2 0 -35 c0 -32 2 -35 29 -35
28 0 30 -3 28 -32 -2 -18 0 -51 4 -73 5 -33 6 -27 8 33 l1 72 40 0 40 0 0
-284 0 -285 -37 -3 -38 -3 3 -72 3 -73 -41 0 c-39 0 -40 -1 -40 -35 l0 -35
-105 0 -105 0 0 34 c0 33 -2 35 -36 38 l-37 3 -1 70 -1 70 -35 1 -35 0 -3 287
-2 287 41 0 40 0 -2 72 -2 72 34 0 c32 1 34 3 37 39 l3 37 104 0 104 0 3 -37z
m-2206 -36 c9 -3 8 -4 -3 -3 -13 1 -19 11 -20 34 -3 31 -3 31 3 3 3 -17 12
-32 20 -34z m51 -3 c-3 -3 -12 -4 -19 -1 -8 3 -5 6 6 6 11 1 17 -2 13 -5z
m-3881 -286 l-2 -143 -37 -3 -37 -3 0 145 0 146 39 0 39 0 -2 -142z m2304 72
l0 -70 35 0 35 0 0 -75 0 -75 -34 0 -34 0 -7 75 -7 75 -34 0 -34 0 0 70 0 70
40 0 40 0 0 -70z m854 -182 c-3 -44 -3 -45 -13 -29 -5 8 -8 22 -6 31 2 9 -3
17 -10 17 -13 0 -14 -21 -2 -33 11 -12 8 -21 -8 -21 -10 0 -15 11 -15 34 0 29
3 33 28 33 25 0 28 -3 26 -32z m2086 2 c0 -16 -2 -30 -4 -30 -2 0 -6 14 -8 30
-3 17 -1 30 4 30 4 0 8 -13 8 -30z m574 0 c-1 -30 -14 -56 -14 -29 0 11 -2 11
-10 -1 -9 -13 -10 -13 -10 0 0 13 -1 13 -10 0 -7 -11 -10 -5 -10 23 0 34 2 37
28 37 24 0 27 -4 26 -30z m-6027 -162 c-2 -13 -4 -5 -4 17 -1 22 1 32 4 23 2
-10 2 -28 0 -40z m116 45 c-13 -2 -33 -2 -45 0 -13 2 -3 4 22 4 25 0 35 -2 23
-4z m345 0 c-21 -2 -55 -2 -75 0 -21 2 -4 4 37 4 41 0 58 -2 38 -4z m1434 0
c-62 -2 -161 -2 -220 0 -59 1 -8 3 113 3 121 0 169 -2 107 -3z m671 0 c-13 -2
-35 -2 -50 0 -16 2 -5 4 22 4 28 0 40 -2 28 -4z m-1261 -130 c-150 -2 -393 -2
-540 0 -147 1 -24 2 273 2 297 0 417 -1 267 -2z m488 -188 l0 -35 395 0 395 0
0 -35 c0 -33 2 -35 35 -35 33 0 35 -2 35 -35 l0 -35 -825 0 -825 0 0 35 c0 33
2 35 35 35 33 0 35 2 35 35 0 33 2 35 35 35 33 0 35 2 35 35 l0 35 325 0 325
0 0 -35z m3660 -70 c0 -34 1 -35 38 -35 36 0 38 -1 38 -35 l0 -35 -863 0 -863
0 0 35 c0 33 2 35 35 35 33 0 35 2 35 35 l0 35 790 0 790 0 0 -35z"/>
<path d="M4485 3870 c-2 -3 0 -12 5 -19 6 -11 10 -9 18 6 9 15 8 20 -4 20 -8
0 -17 -3 -19 -7z"/>
<path d="M4528 3737 l3 -73 35 4 34 4 0 69 0 69 -37 0 -38 0 3 -73z"/>
<path d="M7412 4200 c0 -19 2 -27 5 -17 2 9 2 25 0 35 -3 9 -5 1 -5 -18z"/>
<path d="M7432 4200 c1 -16 4 -27 7 -24 8 8 7 54 -1 54 -5 0 -7 -13 -6 -30z"/>
<path d="M7145 3870 c-2 -3 0 -12 5 -19 6 -11 10 -9 18 6 9 15 8 20 -4 20 -8
0 -17 -3 -19 -7z"/>
<path d="M7185 3740 l0 -70 38 0 37 0 0 70 0 70 -37 0 -38 0 0 -70z"/>
<path d="M7143 3995 c0 -6 6 -12 12 -12 6 0 12 6 12 12 0 6 -6 12 -12 12 -6 0
-12 -6 -12 -12z"/>
</g>
</svg>
