<svg width="16" height="16" viewBox="0 0 16 16" fill="none" xmlns="http://www.w3.org/2000/svg">
<path fill-rule="evenodd" clip-rule="evenodd" d="M8.00005 11.3036L4.87387 12.9137C4.49971 13.1064 4.03693 12.9655 3.84023 12.5989C3.7619 12.453 3.73487 12.2858 3.76332 12.1232L4.36037 8.71286L1.83124 6.29762C1.52854 6.00855 1.52234 5.5338 1.8174 5.23725C1.9349 5.11915 2.08885 5.0423 2.25543 5.01859L5.7506 4.52102L7.31369 1.41816C7.50077 1.04679 7.95972 0.894318 8.33879 1.0776C8.48973 1.15058 8.61191 1.27028 8.68641 1.41816L10.2495 4.52102L13.7447 5.01859C14.163 5.07814 14.4528 5.45865 14.392 5.86848C14.3678 6.03168 14.2894 6.18251 14.1689 6.29762L11.6397 8.71286L12.2368 12.1232C12.3082 12.5314 12.0284 12.919 11.6118 12.9891C11.4459 13.0169 11.2752 12.9905 11.1262 12.9137L8.00005 11.3036Z" fill="#FFBD3D"/>
</svg>
